<svg xmlns="http://www.w3.org/2000/svg" xmlns:xlink="http://www.w3.org/1999/xlink" viewBox="0 0 15.46 23.8"><defs><style>.cls-1{fill:none;}.cls-2{clip-path:url(#clip-path);}</style><clipPath id="clip-path" transform="translate(-0.17 0)"><rect class="cls-1" width="16" height="24"/></clipPath></defs><title>Recurso 1</title><g id="Capa_2" data-name="Capa 2"><g id="Capa_1-2" data-name="Capa 1"><g class="cls-2"><path d="M4.5,13c.54.08,1.91-3.16,2-3.23s2.08.09,1.82-1c-.6.5-.88,0-.86-.44S8,7.16,8.15,7.21s.36.53.84.1c-.72.07-.55-1-.33-1.12A7.74,7.74,0,0,0,10,5.43c.26-.24.28-1,.79-.84s.13,1.26.29,1.63,1.55,1.55,1.52,1.92S12,8.45,12,9c0,.21.36.37.37.61S12,10,12,10a.41.41,0,0,1,.28.47c-.07.37-.52.26-.66.33s.69.86.12,1.48-3,0-3.51.16c-.91.35-1.67,1.58-1.16,2.17a13.21,13.21,0,0,1,2.69,4c.77,2-1.13,5.62-2.19,3-1.5,1,1.64,4.71,6-.87C17,16.25,15.33,8,14.34,6.14S8.71-2.12,3.73.71C-2.46,4.09.48,12.27,4.5,13Z" transform="translate(-0.17 0)"/></g></g></g></svg>