<svg xmlns="http://www.w3.org/2000/svg" xmlns:xlink="http://www.w3.org/1999/xlink" viewBox="0 0 165 172.5"><defs><style>.cls-1{fill:none;}.cls-2{clip-path:url(#clip-path);}</style><clipPath id="clip-path" transform="translate(-0.75)"><rect class="cls-1" width="166" height="173"/></clipPath></defs><title>Recurso 1</title><g id="Capa_2" data-name="Capa 2"><g id="Capa_1-2" data-name="Capa 1"><g class="cls-2"><path d="M71.47,0a11.25,11.25,0,0,0-9.21,5.61A10.27,10.27,0,0,0,61.4,7.5H41a7.49,7.49,0,0,0-13,7.38L12.12,41.26a7.49,7.49,0,1,0,0,15L25.84,79.11a11.14,11.14,0,0,0,0,14.28l-11.6,19.34A11,11,0,0,0,12,112.5,11.25,11.25,0,0,0,12,135a11,11,0,0,0,2.24-.23l11.6,19.34a11.18,11.18,0,0,0-2.59,7.14A11.24,11.24,0,0,0,45.09,165H61.41a11.24,11.24,0,1,0,19.25-10.9l11.6-19.33a11,11,0,0,0,2.24.23,11.33,11.33,0,0,0,10.59-7.5h20.43a7.49,7.49,0,0,0,13-7.38l13.71-22.85A11.25,11.25,0,1,0,154.5,75a10.59,10.59,0,0,0-2.24.24L138.55,52.39a7.49,7.49,0,0,0-13-7.39H101a7.48,7.48,0,0,0-6.48-3.75h-.13L80.66,18.41a10.16,10.16,0,0,0,1.08-1.54A11.26,11.26,0,0,0,71.47,0ZM41,15H61.4a11.18,11.18,0,0,0,12.83,7.26L87.94,45.11a7.5,7.5,0,0,0,0,7.27L74.24,75.23A11,11,0,0,0,72,75a11.33,11.33,0,0,0-10.59,7.5H45.09A11.34,11.34,0,0,0,34.5,75a11,11,0,0,0-2.24.23L18.55,52.39a7.46,7.46,0,0,0,0-7.27L34.38,18.74A7.51,7.51,0,0,0,41,15Zm60,37.5h24.53A7.46,7.46,0,0,0,132,56.25h.12l13.71,22.84a11.23,11.23,0,0,0,0,14.32l-13.71,22.84H132a7.49,7.49,0,0,0-6.49,3.75H105.09a11.33,11.33,0,0,0-10.59-7.5,10.32,10.32,0,0,0-2.24.23L80.66,93.39a11.15,11.15,0,0,0,0-14.29L94.37,56.24h.13A7.49,7.49,0,0,0,101,52.5ZM34.5,82.5a3.75,3.75,0,1,1-3.75,3.75A3.7,3.7,0,0,1,34.5,82.5Zm37.5,0a3.75,3.75,0,1,1-3.75,3.75A3.7,3.7,0,0,1,72,82.5ZM45.09,90H61.41A11.31,11.31,0,0,0,72,97.5a11.05,11.05,0,0,0,2.24-.23l11.6,19.34a11.14,11.14,0,0,0,0,14.28l-11.6,19.34A11.05,11.05,0,0,0,72,150a11.31,11.31,0,0,0-10.59,7.5H45.09A11.33,11.33,0,0,0,34.5,150a11,11,0,0,0-2.24.23L20.66,130.9a11.15,11.15,0,0,0,0-14.29l11.6-19.34a11,11,0,0,0,2.24.23A11.33,11.33,0,0,0,45.09,90ZM12,120a3.75,3.75,0,1,1-3.75,3.75A3.7,3.7,0,0,1,12,120Zm82.5,0a3.75,3.75,0,1,1-3.75,3.75A3.7,3.7,0,0,1,94.5,120Zm-60,37.5a3.75,3.75,0,1,1-3.75,3.75,3.7,3.7,0,0,1,3.75-3.75Zm37.5,0a3.75,3.75,0,1,1-3.75,3.75A3.7,3.7,0,0,1,72,157.5Z" transform="translate(-0.75)"/></g></g></g></svg>