<svg xmlns="http://www.w3.org/2000/svg" xmlns:xlink="http://www.w3.org/1999/xlink" viewBox="0 0 318.34 384"><defs><style>.cls-1{fill:none;}.cls-2{clip-path:url(#clip-path);}</style><clipPath id="clip-path" transform="translate(-0.83 0)"><rect class="cls-1" width="320" height="384"/></clipPath></defs><title>humectante</title><g id="Capa_2" data-name="Capa 2"><g id="Capa_1-2" data-name="Capa 1"><g class="cls-2"><path d="M186.45,165.36a7.44,7.44,0,0,0-.31-.72l-15-28.91a6.46,6.46,0,0,0-11.46,6l14.82,28.56A85.83,85.83,0,0,1,96.79,285.67a85.8,85.8,0,0,1-77.7-115.43L96.79,20.47,149.44,122a6.46,6.46,0,1,0,11.46-6L102.52,3.48a6.46,6.46,0,0,0-11.46,0L7.44,164.64c-.12.24-.22.48-.32.72A98.72,98.72,0,0,0,96.59,298.58H97a98.72,98.72,0,0,0,89.46-133.22Zm0,0" transform="translate(-0.83 0)"/><path d="M315.88,208.6a6.43,6.43,0,0,0-.32-.71l-14.7-28.35a6.46,6.46,0,0,0-11.47,6l14.52,28a39,39,0,0,1-35.3,52.32,39,39,0,0,1-35.32-52.32l35.32-68.06L280.3,168A6.46,6.46,0,0,0,291.77,162l-17.44-33.6a6.46,6.46,0,0,0-11.46,0l-41.23,79.47c-.12.23-.22.47-.32.71a52,52,0,0,0,47.09,70.1h.39a52,52,0,0,0,47.08-70.1Zm0,0" transform="translate(-0.83 0)"/></g><path d="M233.48,333.66l-27.48-53a6.45,6.45,0,0,0-11.45,0l-27.48,53a5.83,5.83,0,0,0-.32.72A36.79,36.79,0,0,0,200.08,384h.39a36.78,36.78,0,0,0,33.32-49.62,5.78,5.78,0,0,0-.31-.72ZM207.7,369.59a24.26,24.26,0,0,1-7.43,1.5,24.42,24.42,0,0,1-7.42-1.49,23.9,23.9,0,0,1-14.13-30.36l21.55-41.54,21.55,41.54a23.88,23.88,0,0,1-14.12,30.35Zm0,0" transform="translate(-0.83 0)"/></g></g></svg>