<svg xmlns="http://www.w3.org/2000/svg" xmlns:xlink="http://www.w3.org/1999/xlink" viewBox="0 0 384 299.84"><defs><style>.cls-1{fill:none;}.cls-2{clip-path:url(#clip-path);}</style><clipPath id="clip-path" transform="translate(0 -0.08)"><rect class="cls-1" width="384" height="300"/></clipPath></defs><title>mano-gota</title><g id="Capa_2" data-name="Capa 2"><g id="Capa_1-2" data-name="Capa 1"><g class="cls-2"><path d="M282.93,36,249,2a6.73,6.73,0,0,0-9.49,0l-34,34a54.72,54.72,0,1,0,77.39,0Zm-9.49,67.9a41.3,41.3,0,0,1-58.41,0l-4.74,4.75,4.74-4.75a41.36,41.36,0,0,1,0-58.41l29.2-29.2,29.21,29.2a41.3,41.3,0,0,1,0,58.41Zm0,0" transform="translate(0 -0.08)"/><path d="M381.08,201.53a28.52,28.52,0,0,0-31.44-15.3l-8.2-8.59a29.65,29.65,0,0,0-48.84,9.11l-11.33,27.31-22.66,9.39a25.3,25.3,0,0,1-16.6.94L163.93,202a10.21,10.21,0,0,1-7.15-11.82,10.18,10.18,0,0,1,12.7-7.75l68.11,19.08a25.07,25.07,0,0,0,30.09-15.33,24.94,24.94,0,0,0-15.77-32.41L144.33,119.28c-.87-.28-1.74-.54-2.62-.79-21.31-6-44.95-1.38-63.24,12.35L2.68,187.76a6.71,6.71,0,1,0,8.06,10.73l75.79-56.92c15-11.23,34.24-15,51.55-10.16.72.2,1.44.42,2.16.65L247.82,166.5a11.51,11.51,0,0,1,7.27,15,11.55,11.55,0,0,1-13.88,7.07L173.1,169.46a23.59,23.59,0,0,0-12.87,45.39l78.07,22.44a38.81,38.81,0,0,0,25.45-1.44l86-35.67A15,15,0,0,1,369.74,219a14.9,14.9,0,0,1-7.64,8.62L250,282a45.37,45.37,0,0,1-31.56,3L96.88,252.37a32.89,32.89,0,0,0-23.46,2.44L29,277.38a6.71,6.71,0,0,0,6.07,12L79.5,266.78a19.47,19.47,0,0,1,13.9-1.45l121.53,32.59a58.92,58.92,0,0,0,40.9-3.89L368,239.65a28.43,28.43,0,0,0,13.13-38.12Zm-82.26,5.25L305,191.9a16.24,16.24,0,0,1,26.74-5l4.26,4.46Zm0,0" transform="translate(0 -0.08)"/></g></g></g></svg>