<svg xmlns="http://www.w3.org/2000/svg" viewBox="0 0 524.31 488.64"><defs><style>.cls-1{stroke:#000;stroke-linecap:round;stroke-width:12px;}</style></defs><title>no-toxico</title><g id="Capa_2" data-name="Capa 2"><g id="Capa_1-2" data-name="Capa 1"><path d="M356.81,187.86V45.28h.91a22.66,22.66,0,0,0,0-45.28H223.81a22.66,22.66,0,0,0,0,45.28h1V187.86l-83.6,134.31-58.8,94.51C72,433.35,70.12,449.46,77.1,462s21.66,19.44,41.29,19.44H463.21c19.68,0,34.32-6.9,41.28-19.44s5.1-28.66-5.28-45.33Zm-133-155.79a9.46,9.46,0,0,1,0-18.87h134a9.46,9.46,0,0,1,0,18.87ZM343.6,45.27V59.15H238V45.28ZM237,193.35a6.58,6.58,0,0,0,1-3.47V72.35H343.6V189.83a6.51,6.51,0,0,0,1,3.49L420.7,315.47c-18.45,8.8-75.25,30.8-126.87,4.4C244.41,294.53,190,305,162.33,313.22ZM493,455.49c-4.41,8.2-15.1,12.67-29.75,12.67H118.39c-14.66,0-25.22-4.39-29.75-12.67s-2.77-19.5,5-31.94l57.65-92.41c11.75-4.67,79.2-28.92,136.4.56a131.76,131.76,0,0,0,60.76,14.22,187.63,187.63,0,0,0,79.21-19l60.25,96.81c7.82,12.23,9.72,23.76,5.07,31.74Z"/><path class="cls-1" d="M6,482.64,518.31,112.78"/></g></g></svg>